<svg id="Capa_1" enable-background="new 0 0 512 512" height="512" viewBox="0 0 512 512" width="512" xmlns="http://www.w3.org/2000/svg"><g><path d="m467 76.835h-165.757c-19.035-45.008-63.633-76.67-115.494-76.67-51.862 0-96.467 31.662-115.505 76.67h-25.244c-24.813 0-45 20.187-45 45v265c0 24.813 20.187 45 45 45h146.316v35c0 8.271-6.729 15-15 15h-96.449v30h352.266v-30h-96.449c-8.271 0-15-6.729-15-15v-35h146.316c24.813 0 45-20.187 45-45v-265c0-24.814-20.187-45-45-45zm-166.479 55.11c31.99 0 58.987 24.959 61.462 56.822l1.215 15.642 15.57-1.915c1.658-.204 3.199-.303 4.71-.303 21.017 0 38.115 17.099 38.115 38.115s-17.099 38.114-38.115 38.114h-166.07c-21.017 0-38.115-17.098-38.115-38.114s17.099-38.115 38.115-38.115c1.544 0 3.122.104 4.826.317l15.609 1.959 1.214-15.685c2.466-31.871 29.464-56.837 61.464-56.837zm-114.772-101.78c45.375 0 83.437 31.867 93.009 74.394-15.078 3.673-29.056 11.142-40.639 21.917-13.407 12.473-22.653 28.453-26.792 45.984-26.126 2.323-48.054 19.462-57.312 42.932-37.013-13.106-63.608-48.438-63.608-89.885 0-52.571 42.771-95.342 95.342-95.342zm-140.749 76.67h16.799c-.914 6.094-1.392 12.328-1.392 18.672 0 56.516 37.604 104.402 89.102 119.984 2.661 35.143 32.085 62.93 67.898 62.93h166.07c37.559 0 68.115-30.556 68.115-68.114 0-35.457-27.229-64.673-61.876-67.832-4.138-17.541-13.389-33.53-26.804-46.007-9.547-8.879-20.72-15.518-32.795-19.633h136.883c8.271 0 15 6.729 15 15v220h-452v-220c0-8.272 6.729-15 15-15zm248.264 375h-74.527c1.665-4.695 2.58-9.741 2.58-15v-35h69.367v35c0 5.259.915 10.305 2.58 15zm173.736-80h-422c-8.271 0-15-6.729-15-15v-15h452v15c0 8.271-6.729 15-15 15z"/></g></svg>