<?xml version="1.0" encoding="iso-8859-1"?>
<!-- Generator: Adobe Illustrator 19.0.0, SVG Export Plug-In . SVG Version: 6.00 Build 0)  -->
<svg xmlns="http://www.w3.org/2000/svg" xmlns:xlink="http://www.w3.org/1999/xlink" version="1.1" id="Layer_1" x="0px" y="0px" viewBox="0 0 512 512" style="enable-background:new 0 0 512 512;" xml:space="preserve" width="512" height="512">
<g>
	<path d="M256,274.998l-51.826,83.834C198.172,368.487,195,379.61,195,391c0,33.636,27.364,61,61,61s61-27.364,61-61   c0-11.39-3.172-22.513-9.154-32.135L256,274.998z M256,422c-17.093,0-31-13.907-31-31c0-5.787,1.609-11.433,4.672-16.361   L256,332.051l26.348,42.621C285.391,379.567,287,385.213,287,391C287,408.093,273.093,422,256,422z"/>
	<path d="M121,0v512h270V0H121z M361,30v30H151V30H361z M151,210V90h30v120H151z M211,90h90v120h-90V90z M331,90h30v120h-30V90z    M151,482V240h210v242H151z"/>
</g>















</svg>
