<svg id="Capa_1" enable-background="new 0 0 512 512" height="512" viewBox="0 0 512 512" width="512" xmlns="http://www.w3.org/2000/svg"><g><path d="m248.348 92.482c0-12.131-9.301-22.072-21.175-22.632-12.898-.599-23.306 9.708-23.306 22.215v184.345 16.256c0 12.131-6.238 23.381-16.687 30.093-21.379 13.734-34.085 38.066-33.116 63.482 1.442 37.94 33.058 69.292 72.086 69.292 39.573 0 72.055-31.991 72.055-72.098 0-25.032-12.712-47.688-33.495-60.882-2.523-1.602-4.807-3.533-6.814-5.723-5.948-6.49-9.548-15.357-9.548-24.763v-15.657zm-29.48-.416c0-4.016 3.247-7.24 7.244-7.24.118 0 .237.002.356.008 3.793.179 6.88 3.61 6.88 7.648v176.428h-14.48zm37.803 243.15c16.615 10.548 26.534 28.573 26.534 48.218 0 30.882-24.244 55.428-53.94 57.015-32.472 1.737-59.036-23.851-60.212-54.779-.768-20.094 8.747-39.057 26.235-50.292 14.862-9.546 23.579-25.566 23.579-42.713v-8.756h14.48v8.156c.001 17.749 8.72 33.88 23.324 43.151z"/><path d="m371.677 97.711v-17.438l15.103 8.719c3.592 2.073 8.177.838 10.245-2.745 2.071-3.587.842-8.174-2.745-10.245l-15.103-8.719 15.103-8.719c3.587-2.071 4.816-6.658 2.745-10.245-2.071-3.588-6.66-4.816-10.245-2.745l-15.103 8.719v-17.439c0-4.142-3.357-7.5-7.5-7.5s-7.5 3.358-7.5 7.5v17.439l-15.103-8.719c-3.589-2.072-8.175-.842-10.245 2.745-2.071 3.587-.842 8.174 2.745 10.245l15.103 8.719-15.103 8.719c-3.587 2.071-4.816 6.658-2.745 10.245 2.072 3.59 6.661 4.816 10.245 2.745l15.103-8.719v17.439c0 4.142 3.357 7.5 7.5 7.5s7.5-3.358 7.5-7.501z"/><path d="m245.021 480.767c46.227-8.868 80.199-49.839 80.199-97.332 0-34.105-17.207-65.39-46.029-83.688-.011-.007-.021-.014-.031-.02-2.308-1.481-3.797-4.484-3.797-7.661v-8.156h7.214c4.143 0 7.5-3.358 7.5-7.5s-3.357-7.5-7.5-7.5h-7.214v-20.125h7.214c4.143 0 7.5-3.358 7.5-7.5s-3.357-7.5-7.5-7.5h-7.214v-20.125h7.214c4.143 0 7.5-3.358 7.5-7.5s-3.357-7.5-7.5-7.5h-7.214v-20.125h7.214c4.143 0 7.5-3.358 7.5-7.5s-3.357-7.5-7.5-7.5h-7.214v-20.125h7.214c4.143 0 7.5-3.358 7.5-7.5s-3.357-7.5-7.5-7.5h-7.214v-20.125h7.214c4.143 0 7.5-3.358 7.5-7.5s-3.357-7.5-7.5-7.5h-7.214v-.802c0-26.581-20.608-48.375-46.91-49.616-28.029-1.351-51.6 21.098-51.6 49.2v200.599c0 2.893-1.598 5.646-4.274 7.365-29.4 18.887-46.838 52.315-45.509 87.238 1.727 45.382 35.411 84.682 80.095 93.446 4.064.799 8.006-1.852 8.803-5.917.798-4.064-1.852-8.006-5.916-8.803-37.933-7.44-66.527-40.79-67.993-79.297-1.128-29.643 13.674-58.016 38.627-74.047 6.993-4.491 11.168-11.962 11.168-19.986v-200.599c0-19.526 16.374-35.151 35.885-34.217 18.294.863 32.625 16.076 32.625 34.633v199.583c0 8.326 4.134 16.121 10.788 20.344.014.009.028.018.042.027 24.439 15.535 39.027 42.072 39.027 70.998 0 40.127-28.685 75.053-68.025 82.601-4.068.78-6.733 4.711-5.952 8.779.776 4.054 4.691 6.734 8.777 5.953z"/><path d="m364.177 248.784c4.143 0 7.5-3.358 7.5-7.5v-107.148c33.581-3.743 59.782-32.29 59.782-66.854 0-37.1-30.183-67.283-67.282-67.283-15.056 0-28.972 4.972-40.194 13.358h-207.588c-19.771 0-35.854 16.084-35.854 35.854v426.933c0 19.77 16.084 35.854 35.854 35.854h219.428c19.771 0 35.854-16.084 35.854-35.854v-199.86c0-4.142-3.357-7.5-7.5-7.5s-7.5 3.358-7.5 7.5v199.861c0 11.499-9.355 20.854-20.854 20.854h-219.428c-11.499 0-20.854-9.355-20.854-20.854v-426.932c0-11.499 9.355-20.854 20.854-20.854h192.889c-8.113 11.407-12.389 25.078-12.389 38.924v.007c0 34.277 25.934 63.091 59.782 66.861v107.134c0 4.141 3.358 7.499 7.5 7.499zm-52.282-181.502c0-.002 0-.003 0-.005.007-28.848 23.474-52.277 52.282-52.277 28.828 0 52.282 23.454 52.282 52.283s-23.454 52.282-52.282 52.282c-28.826 0-52.282-23.452-52.282-52.283z"/></g></svg>